<svg xmlns="http://www.w3.org/2000/svg" xmlns:xlink="http://www.w3.org/1999/xlink" width="595.598" height="146.996" viewBox="0 0 595.598 146.996">
  <defs>
    <linearGradient id="linear-gradient" x1="0.5" y1="1.01" x2="0.5" y2="-0.075" gradientUnits="objectBoundingBox">
      <stop offset="0.103" stop-color="#d29c06"/>
      <stop offset="0.274" stop-color="#f6fb8a"/>
      <stop offset="0.284" stop-color="#f7f67d"/>
      <stop offset="0.319" stop-color="#f9e85b"/>
      <stop offset="0.354" stop-color="#fcde41"/>
      <stop offset="0.39" stop-color="#fdd62e"/>
      <stop offset="0.426" stop-color="#fed222"/>
      <stop offset="0.465" stop-color="#ffd11f"/>
      <stop offset="0.849" stop-color="#d29c06"/>
    </linearGradient>
    <linearGradient id="linear-gradient-4" x1="0.993" y1="-0.168" x2="0.019" y2="1.025" gradientUnits="objectBoundingBox">
      <stop offset="0.103" stop-color="#d29c06"/>
      <stop offset="0.274" stop-color="#f6fb8a"/>
      <stop offset="0.284" stop-color="#f7f67d"/>
      <stop offset="0.319" stop-color="#f9e85b"/>
      <stop offset="0.354" stop-color="#fcde41"/>
      <stop offset="0.39" stop-color="#fdd62e"/>
      <stop offset="0.426" stop-color="#fed222"/>
      <stop offset="0.465" stop-color="#ffd11f"/>
      <stop offset="0.849" stop-color="#d29c06"/>
      <stop offset="0.929" stop-color="#d29c06"/>
    </linearGradient>
  </defs>
  <g id="Your_design" data-name="Your design" transform="translate(-239.931 -409.31)">
    <g id="Group_11386" data-name="Group 11386" transform="translate(415.551 454.829)">
      <g id="Group_11385" data-name="Group 11385">
        <path id="Path_10402" data-name="Path 10402" d="M393.28,508.255l9.269-43.984h13.29l-2.011,9.532h18.538a4.314,4.314,0,0,0,2.667-.613,3.758,3.758,0,0,0,1.093-2.1l1.488-7.17a5.56,5.56,0,0,0,.261-1.575,1.584,1.584,0,0,0-.612-1.443,4.1,4.1,0,0,0-2.1-.393H403.423l2.361-11.455h37.687q4.545,0,6.559,1.617a5.964,5.964,0,0,1,2.01,4.94,11.11,11.11,0,0,1-.131,1.662q-.131.874-.306,1.836l-2.36,11.105a9.4,9.4,0,0,1-2.8,5.378,9.268,9.268,0,0,1-5.071,2.055,9.312,9.312,0,0,1,4.153,1.312,3.756,3.756,0,0,1,1.618,3.409c0,.293-.015.583-.044.874s-.074.583-.132.874L444,498.2q-1.05,5.073-3.8,7.563t-8.351,2.493ZM433.5,485.432q.086-.436.131-.787a5.136,5.136,0,0,0,.045-.613,1.5,1.5,0,0,0-.7-1.486,5.175,5.175,0,0,0-2.186-.349H412.08l-3.06,14.429h18.713a4.682,4.682,0,0,0,2.841-.656,4.753,4.753,0,0,0,1.268-2.754Z" transform="translate(-393.28 -449.057)" fill="url(#linear-gradient)"/>
        <path id="Path_10403" data-name="Path 10403" d="M444.131,508.255l12.5-59.2h13.292l-12.5,59.2Z" transform="translate(-385.895 -449.057)" fill="url(#linear-gradient)"/>
        <path id="Path_10404" data-name="Path 10404" d="M464.593,508.255l9.181-43.2h13.116l-6.732,31.654h18.625q4.631,0,5.858-5.684l5.245-24.659a8.164,8.164,0,0,0,.265-2.011q0-3.673-3.762-3.672H474.648l2.451-11.63h34.187q12.944,0,12.941,10.493a22.228,22.228,0,0,1-.522,4.634L517.5,493.128q-1.577,7.431-6.209,11.279t-12.5,3.848Z" transform="translate(-382.923 -449.057)" fill="url(#linear-gradient)"/>
        <path id="Path_10405" data-name="Path 10405" d="M564.907,508.255l-2.185-42.235-21.511,42.235H526.345l-2.273-59.2h13.641l.962,43.371L560.1,449.057h13.29l1.837,43.284,20.2-43.284h13.028l-28.593,59.2Z" transform="translate(-374.285 -449.057)" fill="#fff"/>
        <path id="Path_10406" data-name="Path 10406" d="M592.56,508.255l12.5-59.2h13.29l-12.5,59.2Z" transform="translate(-364.339 -449.057)" fill="#fff"/>
        <path id="Path_10407" data-name="Path 10407" d="M612.717,508.255l2.449-11.543h31.566a3.6,3.6,0,0,0,2.317-.613,3.946,3.946,0,0,0,1.093-2.272l1.749-8.22a4.14,4.14,0,0,0,.087-.962q0-1.574-2.272-1.575H626.358q-3.587,0-5.2-1.53a5.664,5.664,0,0,1-1.617-4.328,15.022,15.022,0,0,1,.261-2.536l3.235-15.3q1.136-5.246,3.848-7.782t8.483-2.536h36.813l-2.361,11.279H638.423a2.771,2.771,0,0,0-2.01.612,4.5,4.5,0,0,0-.962,2.186l-1.662,7.783c-.058.234-.1.436-.131.612a3.127,3.127,0,0,0-.044.525q0,1.313,1.923,1.311h23.7q3.674,0,5.291,1.575a5.816,5.816,0,0,1,1.618,4.371,12.578,12.578,0,0,1-.262,2.448l-3.412,16.178q-1.135,5.246-3.846,7.782t-8.4,2.537Z" transform="translate(-361.411 -449.057)" fill="#fff"/>
        <path id="Path_10408" data-name="Path 10408" d="M661.962,508.255l9.182-43.285h13.728l-2.1,9.619h21.773l-2.01,9.443H680.763l-2.623,12.418h30.168l-2.448,11.8ZM672.018,460.6l2.448-11.542h43.9L715.915,460.6Z" transform="translate(-354.26 -449.057)" fill="#fff"/>
        <path id="Path_10409" data-name="Path 10409" d="M744.094,508.255l4.022-19.326q.086-.435.132-.743a4.09,4.09,0,0,0,.044-.568q0-1.4-2.448-1.4H726.692l-4.635,22.036H708.766l9.182-43.285H731.24l-2.45,11.456h18.189a3.908,3.908,0,0,0,2.58-.613,5.057,5.057,0,0,0,1.093-2.448l2.1-9.618c.057-.292.1-.553.131-.788a5.106,5.106,0,0,0,.045-.612,1.475,1.475,0,0,0-.613-1.4,4.547,4.547,0,0,0-2.1-.349H718.822l2.449-11.542h37.6q4.545,0,6.557,1.617a5.958,5.958,0,0,1,2.012,4.94,11.262,11.262,0,0,1-.131,1.662q-.132.874-.306,1.836l-2.712,12.854q-.964,4.549-3.5,6.427a11.437,11.437,0,0,1-5.6,2.23,10.855,10.855,0,0,1,4.722,1.267,4.089,4.089,0,0,1,1.923,3.891v.92a3.17,3.17,0,0,1-.174,1l-4.285,20.55Z" transform="translate(-347.462 -449.057)" fill="#fff"/>
      </g>
    </g>
    <g id="Group_11387" data-name="Group 11387" transform="translate(365.918 478.799)">
      <path id="Path_10410" data-name="Path 10410" d="M351.606,476.551v-5.376h-1.665v-1.189h4.67v1.189h-1.639v5.376Z" transform="translate(-349.941 -469.987)" fill="#060627"/>
      <path id="Path_10411" data-name="Path 10411" d="M354.611,476.551v-6.564h1.322l2.458,3.26h-.616l2.388-3.26h1.322v6.564h-1.365v-5.057l.546.124-2.53,3.259h-.175l-2.442-3.259.459-.124v5.057Z" transform="translate(-349.263 -469.987)" fill="#060627"/>
    </g>
    <path id="Path_10412" data-name="Path 10412" d="M297.573,476.2l-.01.009h0a10.9,10.9,0,0,0,17.181,13.417h0l0-.01a10.87,10.87,0,0,0,1.772-3.131l28.362-50.126-3.343,17.366a46.486,46.486,0,0,1,6.591,11.088h28.54A73.6,73.6,0,0,0,309.6,409.31v27.207a46.177,46.177,0,0,1,22.993,8.671l-31.725,28.1A10.947,10.947,0,0,0,297.573,476.2Z" transform="translate(8.053)" fill="url(#linear-gradient-4)"/>
    <path id="Path_10413" data-name="Path 10413" d="M305.62,436.547V409.335a73.281,73.281,0,0,0-44.465,18.672l19.224,19.224A46.212,46.212,0,0,1,305.62,436.547Z" transform="translate(3.082 0.004)" fill="#fff"/>
    <path id="Path_10414" data-name="Path 10414" d="M277.207,450.459,257.95,431.2a73.216,73.216,0,0,0-18.019,44.143h27.2A46.2,46.2,0,0,1,277.207,450.459Z" transform="translate(0 3.179)" fill="#fff"/>
    <path id="Path_10415" data-name="Path 10415" d="M356.21,490.709a46.431,46.431,0,0,1-89.036-13.146H239.962a73.56,73.56,0,0,0,144.763,13.146Z" transform="translate(0.004 9.912)" fill="#fff"/>
  </g>
</svg>
