<svg xmlns="http://www.w3.org/2000/svg" xmlns:xlink="http://www.w3.org/1999/xlink" width="266" height="65.65" viewBox="0 0 266 65.65">
  <defs>
    <linearGradient id="linear-gradient" x1="0.5" y1="1.01" x2="0.5" y2="-0.075" gradientUnits="objectBoundingBox">
      <stop offset="0.103" stop-color="#d29c06"/>
      <stop offset="0.274" stop-color="#f6fb8a"/>
      <stop offset="0.284" stop-color="#f7f67d"/>
      <stop offset="0.319" stop-color="#f9e85b"/>
      <stop offset="0.354" stop-color="#fcde41"/>
      <stop offset="0.39" stop-color="#fdd62e"/>
      <stop offset="0.426" stop-color="#fed222"/>
      <stop offset="0.465" stop-color="#ffd11f"/>
      <stop offset="0.849" stop-color="#d29c06"/>
    </linearGradient>
    <linearGradient id="linear-gradient-4" x1="0.5" y1="1.01" x2="0.5" y2="-0.075" gradientUnits="objectBoundingBox">
      <stop offset="0.103" stop-color="#060627"/>
      <stop offset="0.274" stop-color="#2d3092"/>
      <stop offset="0.286" stop-color="#282b8c"/>
      <stop offset="0.343" stop-color="#191b7a"/>
      <stop offset="0.402" stop-color="#10116e"/>
      <stop offset="0.465" stop-color="#0e0e6b"/>
      <stop offset="0.849" stop-color="#060627"/>
    </linearGradient>
    <linearGradient id="linear-gradient-9" x1="0.993" y1="-0.168" x2="0.019" y2="1.025" gradientUnits="objectBoundingBox">
      <stop offset="0.103" stop-color="#d29c06"/>
      <stop offset="0.274" stop-color="#f6fb8a"/>
      <stop offset="0.284" stop-color="#f7f67d"/>
      <stop offset="0.319" stop-color="#f9e85b"/>
      <stop offset="0.354" stop-color="#fcde41"/>
      <stop offset="0.39" stop-color="#fdd62e"/>
      <stop offset="0.426" stop-color="#fed222"/>
      <stop offset="0.465" stop-color="#ffd11f"/>
      <stop offset="0.849" stop-color="#d29c06"/>
      <stop offset="0.929" stop-color="#d29c06"/>
    </linearGradient>
    <linearGradient id="linear-gradient-10" x1="0.5" y1="-1.967" x2="0.5" y2="3.553" xlink:href="#linear-gradient-4"/>
    <linearGradient id="linear-gradient-11" x1="0.5" y1="-2.256" x2="0.5" y2="2.483" xlink:href="#linear-gradient-4"/>
    <linearGradient id="linear-gradient-12" x1="0.5" y1="-2.218" x2="0.5" y2="0.821" xlink:href="#linear-gradient-4"/>
  </defs>
  <g id="Your_design" data-name="Your design" transform="translate(-239.931 -409.31)">
    <g id="Group_11386" data-name="Group 11386" transform="translate(318.365 429.639)">
      <g id="Group_11385" data-name="Group 11385" transform="translate(0)">
        <path id="Path_10402" data-name="Path 10402" d="M393.28,475.5l4.14-19.644h5.936l-.9,4.257h8.279a1.927,1.927,0,0,0,1.191-.274,1.679,1.679,0,0,0,.488-.937l.664-3.2a2.484,2.484,0,0,0,.117-.7.707.707,0,0,0-.273-.644,1.831,1.831,0,0,0-.938-.175H397.81l1.055-5.116H415.7a4.7,4.7,0,0,1,2.929.722,2.663,2.663,0,0,1,.9,2.206,4.959,4.959,0,0,1-.058.742q-.058.391-.137.82l-1.054,4.96a4.2,4.2,0,0,1-1.25,2.4,4.139,4.139,0,0,1-2.265.918,4.159,4.159,0,0,1,1.855.586,1.677,1.677,0,0,1,.723,1.523c0,.131-.007.26-.019.39s-.033.26-.059.39L415.931,471a6.071,6.071,0,0,1-1.7,3.378,5.409,5.409,0,0,1-3.73,1.113ZM411.244,465.3q.038-.195.058-.351a2.3,2.3,0,0,0,.02-.274.67.67,0,0,0-.313-.664,2.311,2.311,0,0,0-.976-.156h-8.357L400.31,470.3h8.357a2.091,2.091,0,0,0,1.269-.293,2.122,2.122,0,0,0,.566-1.23Z" transform="translate(-393.28 -449.057)" fill="url(#linear-gradient)"/>
        <path id="Path_10403" data-name="Path 10403" d="M444.131,475.5l5.584-26.438h5.936L450.067,475.5Z" transform="translate(-418.122 -449.057)" fill="url(#linear-gradient)"/>
        <path id="Path_10404" data-name="Path 10404" d="M464.593,475.5l4.1-19.292h5.858l-3.006,14.137h8.318q2.068,0,2.616-2.538l2.343-11.013a3.644,3.644,0,0,0,.118-.9,1.468,1.468,0,0,0-1.68-1.64H469.084l1.095-5.194h15.268q5.781,0,5.78,4.686a9.928,9.928,0,0,1-.233,2.069l-2.773,12.927a8.609,8.609,0,0,1-2.773,5.037,8.468,8.468,0,0,1-5.584,1.719Z" transform="translate(-428.118 -449.057)" fill="url(#linear-gradient)"/>
        <path id="Path_10405" data-name="Path 10405" d="M542.31,475.5l-.976-18.863L531.727,475.5h-6.639l-1.015-26.438h6.092l.43,19.37,9.568-19.37H546.1l.82,19.331,9.021-19.331h5.818L548.987,475.5Z" transform="translate(-457.176 -449.057)" fill="url(#linear-gradient-4)"/>
        <path id="Path_10406" data-name="Path 10406" d="M592.56,475.5l5.585-26.438h5.936L598.5,475.5Z" transform="translate(-490.634 -449.057)" fill="url(#linear-gradient-4)"/>
        <path id="Path_10407" data-name="Path 10407" d="M612.717,475.5l1.094-5.155h14.1a1.61,1.61,0,0,0,1.035-.274,1.763,1.763,0,0,0,.488-1.015l.781-3.671a1.847,1.847,0,0,0,.039-.43q0-.7-1.015-.7H618.809a3.3,3.3,0,0,1-2.324-.683,2.53,2.53,0,0,1-.722-1.933,6.713,6.713,0,0,1,.117-1.132l1.445-6.834a6.529,6.529,0,0,1,1.719-3.475,5.4,5.4,0,0,1,3.789-1.132h16.441l-1.055,5.037H624.2a1.238,1.238,0,0,0-.9.273,2.01,2.01,0,0,0-.43.976l-.742,3.476c-.026.1-.046.195-.058.273a1.4,1.4,0,0,0-.019.234q0,.586.859.586h10.583a3.308,3.308,0,0,1,2.363.7,2.6,2.6,0,0,1,.723,1.952,5.614,5.614,0,0,1-.117,1.094l-1.524,7.225a6.525,6.525,0,0,1-1.718,3.475,5.335,5.335,0,0,1-3.75,1.133Z" transform="translate(-500.482 -449.057)" fill="url(#linear-gradient-4)"/>
        <path id="Path_10408" data-name="Path 10408" d="M661.962,475.5l4.1-19.332h6.131l-.937,4.3h9.724l-.9,4.218h-9.725l-1.171,5.546h13.473l-1.094,5.272Zm4.491-21.284,1.094-5.155h19.6l-1.094,5.155Z" transform="translate(-524.539 -449.057)" fill="url(#linear-gradient-4)"/>
        <path id="Path_10409" data-name="Path 10409" d="M724.544,475.5l1.8-8.631c.026-.129.045-.24.059-.332a1.832,1.832,0,0,0,.019-.254q0-.624-1.094-.625h-8.553L714.7,475.5h-5.936l4.1-19.332H718.8l-1.094,5.116h8.123a1.745,1.745,0,0,0,1.152-.274,2.258,2.258,0,0,0,.488-1.094l.938-4.3c.026-.13.045-.247.058-.352a2.293,2.293,0,0,0,.02-.273.658.658,0,0,0-.274-.625,2.03,2.03,0,0,0-.937-.156h-14.02l1.094-5.155h16.793a4.7,4.7,0,0,1,2.929.722,2.661,2.661,0,0,1,.9,2.206,5.021,5.021,0,0,1-.058.742q-.059.391-.136.82l-1.211,5.741a4.6,4.6,0,0,1-1.562,2.87,5.108,5.108,0,0,1-2.5,1,4.849,4.849,0,0,1,2.109.566,1.826,1.826,0,0,1,.859,1.738v.411a1.414,1.414,0,0,1-.078.449l-1.914,9.178Z" transform="translate(-547.404 -449.057)" fill="url(#linear-gradient-4)"/>
      </g>
    </g>
    <g id="Group_11387" data-name="Group 11387" transform="translate(296.198 440.344)">
      <path id="Path_10410" data-name="Path 10410" d="M350.685,472.919v-2.4h-.744v-.531h2.086v.531h-.732v2.4Z" transform="translate(-349.941 -469.987)" fill="#060627"/>
      <path id="Path_10411" data-name="Path 10411" d="M354.611,472.919v-2.932h.59l1.1,1.456h-.275l1.066-1.456h.59v2.932h-.61V470.66l.244.055-1.13,1.456h-.078l-1.09-1.456.205-.055v2.259Z" transform="translate(-352.222 -469.987)" fill="#060627"/>
    </g>
    <path id="Path_10412" data-name="Path 10412" d="M296.36,439.184l0,0h0a4.869,4.869,0,0,0,7.673,5.992h0l0,0a4.854,4.854,0,0,0,.791-1.4l12.667-22.387L316,429.148a20.762,20.762,0,0,1,2.944,4.952h12.746a32.871,32.871,0,0,0-29.955-24.79v12.151A20.623,20.623,0,0,1,312,425.333l-14.169,12.548A4.889,4.889,0,0,0,296.36,439.184Z" transform="translate(-27.089 0)" fill="url(#linear-gradient-9)"/>
    <path id="Path_10413" data-name="Path 10413" d="M281.013,421.488V409.335a32.728,32.728,0,0,0-19.858,8.339l8.586,8.586A20.638,20.638,0,0,1,281.013,421.488Z" transform="translate(-10.369 -0.012)" fill="url(#linear-gradient-10)"/>
    <path id="Path_10414" data-name="Path 10414" d="M256.579,439.8l-8.6-8.6a32.7,32.7,0,0,0-8.047,19.715h12.148A20.633,20.633,0,0,1,256.579,439.8Z" transform="translate(0 -10.695)" fill="url(#linear-gradient-11)"/>
    <path id="Path_10415" data-name="Path 10415" d="M291.879,483.434a20.737,20.737,0,0,1-39.764-5.871H239.962a32.853,32.853,0,0,0,64.652,5.871Z" transform="translate(-0.015 -33.344)" fill="url(#linear-gradient-12)"/>
  </g>
</svg>
